<svg width="19" height="20" viewBox="0 0 19 20" fill="none" xmlns="http://www.w3.org/2000/svg">
<path d="M14.25 14.1666V9.16665C14.25 6.60831 12.9596 4.46665 10.6875 3.89998V3.33331C10.6875 2.64165 10.1571 2.08331 9.50002 2.08331C8.84294 2.08331 8.31252 2.64165 8.31252 3.33331V3.89998C6.04835 4.46665 4.75002 6.59998 4.75002 9.16665V14.1666H3.16669V15.8333H15.8334V14.1666H14.25ZM12.6667 14.1666H6.33335V9.16665C6.33335 7.09998 7.52877 5.41665 9.50002 5.41665C11.4713 5.41665 12.6667 7.09998 12.6667 9.16665V14.1666ZM9.50002 18.3333C10.3709 18.3333 11.0834 17.5833 11.0834 16.6666H7.91669C7.91669 17.5833 8.62919 18.3333 9.50002 18.3333Z" fill="#9E9E9E"/>
</svg>
