<svg width="3" height="10" viewBox="0 0 3 10" fill="none" xmlns="http://www.w3.org/2000/svg">
<path d="M1.24444 2.5C1.92889 2.5 2.48889 1.9375 2.48889 1.25C2.48889 0.5625 1.92889 0 1.24444 0C0.56 0 0 0.5625 0 1.25C0 1.9375 0.56 2.5 1.24444 2.5ZM1.24444 3.75C0.56 3.75 0 4.3125 0 5C0 5.6875 0.56 6.25 1.24444 6.25C1.92889 6.25 2.48889 5.6875 2.48889 5C2.48889 4.3125 1.92889 3.75 1.24444 3.75ZM1.24444 7.5C0.56 7.5 0 8.0625 0 8.75C0 9.4375 0.56 10 1.24444 10C1.92889 10 2.48889 9.4375 2.48889 8.75C2.48889 8.0625 1.92889 7.5 1.24444 7.5Z" fill="white"/>
</svg>
